# Blender v3.5.0 OBJ File: ''
# www.blender.org
mtllib scene.mtl
o Plane
v -22.617496 -4.816640 -6.992569
v 23.359364 -4.816640 -6.992569
v -22.617496 -4.816640 -52.969429
v 23.359364 -4.816640 -52.969429
vt 1.000000 0.000000
vt 0.000000 1.000000
vt 0.000000 0.000000
vt 1.000000 1.000000
vn 0.0000 1.0000 0.0000
usemtl red
s off
f 2/1/1 3/2/1 1/3/1
f 2/1/1 4/4/1 3/2/1
o Plane.001
v -12.067482 -1.016104 2.119410
v -1.240594 -0.636280 7.366348
v -10.362834 10.088678 -2.201947
v 0.464054 10.468502 3.044991
vt 1.000000 0.000000
vt 0.000000 1.000000
vt 0.000000 0.000000
vt 1.000000 1.000000
vn -0.4135 0.3846 0.8253
usemtl light
s off
f 6/5/2 7/6/2 5/7/2
f 6/5/2 8/8/2 7/6/2
o Text_Text.001
v 2.013599 -1.277555 -16.245785
v 2.013599 -4.899568 -16.245785
v 2.534065 -4.899568 -16.245785
v 2.534065 -3.332861 -16.245785
v 3.075773 -3.332861 -16.245785
v 3.276080 -3.323755 -16.245785
v 3.457615 -3.297185 -16.245785
v 3.620635 -3.254277 -16.245785
v 3.765399 -3.196156 -16.245785
v 3.892165 -3.123945 -16.245785
v 4.001191 -3.038772 -16.245785
v 4.092736 -2.941759 -16.245785
v 4.167058 -2.834033 -16.245785
v 4.224413 -2.716717 -16.245785
v 4.265063 -2.590938 -16.245785
v 4.289262 -2.457819 -16.245785
v 4.297273 -2.318485 -16.245785
v 4.289709 -2.177514 -16.245785
v 4.266858 -2.042222 -16.245785
v 4.228481 -1.913863 -16.245785
v 4.174336 -1.793693 -16.245785
v 4.104186 -1.682964 -16.245785
v 4.017789 -1.582930 -16.245785
v 3.914907 -1.494846 -16.245785
v 3.795298 -1.419965 -16.245785
v 3.658725 -1.359541 -16.245785
v 3.504946 -1.314829 -16.245785
v 3.333723 -1.287082 -16.245785
v 3.144814 -1.277555 -16.245785
v 2.534065 -1.744911 -16.245785
v 3.144814 -1.744911 -16.245785
v 3.256229 -1.750708 -16.245785
v 3.354569 -1.767384 -16.245785
v 3.440480 -1.793871 -16.245785
v 3.514608 -1.829098 -16.245785
v 3.577598 -1.871997 -16.245785
v 3.630095 -1.921498 -16.245785
v 3.672744 -1.976531 -16.245785
v 3.706192 -2.036026 -16.245785
v 3.731084 -2.098914 -16.245785
v 3.748065 -2.164126 -16.245785
v 3.757780 -2.230592 -16.245785
v 3.760875 -2.297242 -16.245785
v 3.755739 -2.384287 -16.245785
v 3.740591 -2.464731 -16.245785
v 3.715816 -2.538389 -16.245785
v 3.681802 -2.605076 -16.245785
v 3.638937 -2.664608 -16.245785
v 3.587608 -2.716801 -16.245785
v 3.528202 -2.761470 -16.245785
v 3.461106 -2.798431 -16.245785
v 3.386708 -2.827499 -16.245785
v 3.305395 -2.848490 -16.245785
v 3.217553 -2.861221 -16.245785
v 3.123571 -2.865505 -16.245785
v 2.534065 -2.865505 -16.245785
v 1.487823 -1.277555 -16.245785
v -0.445333 -1.277555 -16.245785
v -0.445333 -4.899568 -16.245785
v 0.075132 -4.899568 -16.245785
v 0.075132 -3.216022 -16.245785
v 1.487823 -3.216022 -16.245785
v 1.487823 -2.748666 -16.245785
v 0.075132 -2.748666 -16.245785
v 0.075132 -1.744911 -16.245785
v 1.487823 -1.744911 -16.245785
v -1.002974 -1.277555 -16.245785
v -2.936131 -1.277555 -16.245785
v -2.936131 -4.899568 -16.245785
v -2.415665 -4.899568 -16.245785
v -2.415665 -3.216022 -16.245785
v -1.002974 -3.216022 -16.245785
v -1.002974 -2.748666 -16.245785
v -2.415665 -2.748666 -16.245785
v -2.415665 -1.744911 -16.245785
v -1.002974 -1.744911 -16.245785
vt 0.018182 0.000000
vt 0.527273 0.000000
vt 0.000000 0.000000
vt 0.509091 0.000000
vt 0.490909 0.000000
vt 0.472727 0.000000
vt 0.454545 0.000000
vt 0.436364 0.000000
vt 0.418182 0.000000
vt 0.400000 0.000000
vt 0.381818 0.000000
vt 0.545455 0.000000
vt 0.363636 0.000000
vt 1.000000 0.000000
vt 0.563636 0.000000
vt 0.581818 0.000000
vt 0.600000 0.000000
vt 0.345455 0.000000
vt 0.618182 0.000000
vt 0.636364 0.000000
vt 0.654545 0.000000
vt 0.327273 0.000000
vt 0.672727 0.000000
vt 0.690909 0.000000
vt 0.709091 0.000000
vt 0.309091 0.000000
vt 0.727273 0.000000
vt 0.745455 0.000000
vt 0.290909 0.000000
vt 0.763636 0.000000
vt 0.781818 0.000000
vt 0.272727 0.000000
vt 0.800000 0.000000
vt 0.254545 0.000000
vt 0.818182 0.000000
vt 0.836364 0.000000
vt 0.236364 0.000000
vt 0.854545 0.000000
vt 0.872727 0.000000
vt 0.218182 0.000000
vt 0.890909 0.000000
vt 0.909091 0.000000
vt 0.927273 0.000000
vt 0.945455 0.000000
vt 0.200000 0.000000
vt 0.963636 0.000000
vt 0.981818 0.000000
vt 0.054545 0.000000
vt 0.181818 0.000000
vt 0.163636 0.000000
vt 0.145455 0.000000
vt 0.127273 0.000000
vt 0.109091 0.000000
vt 0.090909 0.000000
vt 0.072727 0.000000
vt 0.036364 0.000000
vt 0.222222 0.000000
vt 0.888889 0.000000
vt 0.111111 0.000000
vt 0.000000 0.000000
vt 1.000000 0.000000
vt 0.777778 0.000000
vt 0.444444 0.000000
vt 0.666667 0.000000
vt 0.555556 0.000000
vt 0.333333 0.000000
vt 0.222222 0.000000
vt 0.888889 0.000000
vt 0.111111 0.000000
vt 0.000000 0.000000
vt 1.000000 0.000000
vt 0.777778 0.000000
vt 0.444444 0.000000
vt 0.666667 0.000000
vt 0.555556 0.000000
vt 0.333333 0.000000
vn 0.0000 0.0000 1.0000
usemtl green
s off
f 10/9/3 38/10/3 9/11/3
f 38/10/3 37/12/3 9/11/3
f 38/10/3 36/13/3 37/12/3
f 38/10/3 35/14/3 36/13/3
f 38/10/3 34/15/3 35/14/3
f 38/10/3 33/16/3 34/15/3
f 38/10/3 32/17/3 33/16/3
f 38/10/3 31/18/3 32/17/3
f 38/10/3 30/19/3 31/18/3
f 38/10/3 39/20/3 30/19/3
f 39/20/3 29/21/3 30/19/3
f 10/9/3 64/22/3 38/10/3
f 40/23/3 29/21/3 39/20/3
f 41/24/3 29/21/3 40/23/3
f 42/25/3 29/21/3 41/24/3
f 42/25/3 28/26/3 29/21/3
f 43/27/3 28/26/3 42/25/3
f 44/28/3 28/26/3 43/27/3
f 45/29/3 28/26/3 44/28/3
f 45/29/3 27/30/3 28/26/3
f 46/31/3 27/30/3 45/29/3
f 47/32/3 27/30/3 46/31/3
f 48/33/3 27/30/3 47/32/3
f 48/33/3 26/34/3 27/30/3
f 49/35/3 26/34/3 48/33/3
f 50/36/3 26/34/3 49/35/3
f 50/36/3 25/37/3 26/34/3
f 51/38/3 25/37/3 50/36/3
f 52/39/3 25/37/3 51/38/3
f 52/39/3 24/40/3 25/37/3
f 53/41/3 24/40/3 52/39/3
f 53/41/3 23/42/3 24/40/3
f 54/43/3 23/42/3 53/41/3
f 55/44/3 23/42/3 54/43/3
f 55/44/3 22/45/3 23/42/3
f 56/46/3 22/45/3 55/44/3
f 57/47/3 22/45/3 56/46/3
f 57/47/3 21/48/3 22/45/3
f 58/49/3 21/48/3 57/47/3
f 59/50/3 21/48/3 58/49/3
f 60/51/3 21/48/3 59/50/3
f 61/52/3 21/48/3 60/51/3
f 61/52/3 20/53/3 21/48/3
f 62/54/3 20/53/3 61/52/3
f 63/55/3 20/53/3 62/54/3
f 10/9/3 12/56/3 64/22/3
f 12/56/3 63/55/3 64/22/3
f 12/56/3 20/53/3 63/55/3
f 12/56/3 19/57/3 20/53/3
f 12/56/3 18/58/3 19/57/3
f 12/56/3 17/59/3 18/58/3
f 12/56/3 16/60/3 17/59/3
f 12/56/3 15/61/3 16/60/3
f 12/56/3 14/62/3 15/61/3
f 12/56/3 13/63/3 14/62/3
f 10/9/3 11/64/3 12/56/3
f 67/65/3 73/66/3 66/67/3
f 73/66/3 65/68/3 66/67/3
f 73/66/3 74/69/3 65/68/3
f 67/65/3 72/70/3 73/66/3
f 67/65/3 69/71/3 72/70/3
f 69/71/3 71/72/3 72/70/3
f 69/71/3 70/73/3 71/72/3
f 67/65/3 68/74/3 69/71/3
f 77/75/3 83/76/3 76/77/3
f 83/76/3 75/78/3 76/77/3
f 83/76/3 84/79/3 75/78/3
f 77/75/3 82/80/3 83/76/3
f 77/75/3 79/81/3 82/80/3
f 79/81/3 81/82/3 82/80/3
f 79/81/3 80/83/3 81/82/3
f 77/75/3 78/84/3 79/81/3
