# Blender v3.5.0 OBJ File: ''
# www.blender.org
mtllib scene.mtl
o objekt
v 2.169710 -1.216828 -8.746935
v 1.637894 -3.076608 -6.964815
v 2.169710 -3.076608 -8.746936
v 0.387589 -1.216827 -9.278751
v 1.637894 -1.216828 -6.964814
v 0.387589 -3.076608 -9.278752
v -0.144227 -1.216828 -7.496629
v -0.144227 -3.076608 -7.496631
v 0.113720 0.642952 -9.560549
v -1.662558 -3.076610 -9.009531
v 0.113720 -3.076609 -9.560549
v -0.437298 0.642952 -11.336827
v -1.662558 0.642952 -9.009531
v -0.437298 -3.076609 -11.336827
v -2.213576 0.642952 -10.785810
v -2.213576 -3.076609 -10.785810
v 4.000887 3.381479 -5.130607
v -3.999113 3.381479 -13.130605
v -3.999113 3.381479 -5.130607
v 4.000887 3.381479 -13.130605
v -3.915786 -4.118522 -12.646586
v 4.084214 3.881479 -12.646585
v -3.915786 3.881478 -12.646585
v 4.084215 -4.118521 -12.646586
v 4.000887 -3.011757 -5.130607
v -3.999113 -3.011757 -13.130607
v -3.999113 -3.011757 -5.130607
v 4.000887 -3.011757 -13.130607
v -0.768140 3.097859 -8.775519
v 0.697142 3.097860 -9.959016
v 0.697142 3.097859 -8.775519
v -0.768140 3.097860 -9.959016
v 3.000887 -4.118523 -5.130607
v 3.000887 3.881479 -13.130605
v 3.000887 3.881479 -5.130607
v 3.000887 -4.118522 -13.130607
v -2.999113 -4.118523 -5.130607
v -2.999113 3.881479 -13.130605
v -2.999113 3.881479 -5.130607
v -2.999113 -4.118522 -13.130607
vt 1.000000 0.000000
vt 1.000000 0.000000
vt 1.000000 0.000000
vt 1.000000 0.000000
vt 1.000000 0.000000
vt 1.000000 0.000000
vt 1.000000 0.000000
vt 1.000000 0.000000
vt 1.000000 0.000000
vt 1.000000 0.000000
vt 1.000000 0.000000
vt 1.000000 0.000000
vt 1.000000 0.000000
vt 1.000000 0.000000
vt 1.000000 0.000000
vt 1.000000 0.000000
vt 1.000000 0.000000
vt 0.000000 1.000000
vt 0.000000 0.000000
vt 1.000000 1.000000
vt 1.000000 0.000000
vt 0.000000 1.000000
vt 0.000000 0.000000
vt 1.000000 1.000000
vt 1.000000 0.000000
vt 0.000000 1.000000
vt 0.000000 0.000000
vt 1.000000 1.000000
vt 1.000000 0.000000
vt 1.000000 0.000000
vt 1.000000 0.000000
vt 1.000000 0.000000
vt 1.000000 0.000000
vt 0.000000 1.000000
vt 0.000000 0.000000
vt 1.000000 1.000000
vt 1.000000 0.000000
vt 0.000000 1.000000
vt 0.000000 0.000000
vt 1.000000 1.000000
vn 0.9582 -0.0000 0.2860
vn 0.0000 1.0000 0.0000
vn -0.9582 0.0000 -0.2860
vn 0.0000 -1.0000 -0.0000
vn -0.2860 -0.0000 0.9582
vn 0.2860 0.0000 -0.9582
vn 0.2963 0.0000 0.9551
vn -0.2963 0.0000 -0.9551
vn -0.9551 0.0000 0.2963
vn 0.9551 0.0000 -0.2963
vn 0.0000 -0.0000 1.0000
vn 1.0000 -0.0000 0.0000
usemtl grey
s 1
f 1/1/1 2/2/1 3/3/1
f 4/4/2 5/5/2 1/1/2
f 6/6/3 7/7/3 4/4/3
f 3/3/4 8/8/4 6/6/4
f 5/5/5 8/8/5 2/2/5
f 4/4/6 3/3/6 6/6/6
f 1/1/1 5/5/1 2/2/1
f 4/4/2 7/7/2 5/5/2
f 6/6/3 8/8/3 7/7/3
f 3/3/4 2/2/4 8/8/4
f 5/5/5 7/7/5 8/8/5
f 4/4/6 1/1/6 3/3/6
f 9/9/7 10/10/7 11/11/7
f 12/12/2 13/13/2 9/9/2
f 14/14/8 15/15/8 12/12/8
f 11/11/4 16/16/4 14/14/4
f 13/13/9 16/16/9 10/10/9
f 12/12/10 11/11/10 14/14/10
f 9/9/7 13/13/7 10/10/7
f 12/12/2 15/15/2 13/13/2
f 14/14/8 16/16/8 15/15/8
f 11/11/4 10/10/4 16/16/4
f 13/13/9 15/15/9 16/16/9
f 12/12/10 9/9/10 11/11/10
f 17/17/2 18/18/2 19/19/2
f 17/17/2 20/20/2 18/18/2
f 21/21/11 22/22/11 23/23/11
f 21/21/11 24/24/11 22/22/11
f 25/25/2 26/26/2 27/27/2
f 25/25/2 28/28/2 26/26/2
usemtl light
f 29/29/4 30/30/4 31/31/4
f 29/29/4 32/32/4 30/30/4
usemtl green
f 33/33/12 34/34/12 35/35/12
f 33/33/12 36/36/12 34/34/12
usemtl red
f 37/37/12 38/38/12 39/39/12
f 37/37/12 40/40/12 38/38/12
o Cube_Cube.001
v -1.414214 2.542179 -8.113842
v -1.414214 3.956392 -9.528055
v 0.000000 1.542179 -9.113842
v -0.000000 2.956392 -10.528055
v 0.000000 3.542179 -7.113842
v -0.000000 4.956392 -8.528055
v 1.414214 2.542179 -8.113842
v 1.414214 3.956392 -9.528055
vt 0.625000 0.000000
vt 0.375000 0.250000
vt 0.375000 0.000000
vt 0.625000 0.250000
vt 0.375000 0.500000
vt 0.625000 0.500000
vt 0.375000 0.750000
vt 0.625000 0.750000
vt 0.375000 1.000000
vt 0.125000 0.750000
vt 0.125000 0.500000
vt 0.875000 0.500000
vt 0.625000 1.000000
vt 0.875000 0.750000
vn -0.7071 -0.5000 -0.5000
vn 0.7071 -0.5000 -0.5000
vn 0.7071 0.5000 0.5000
vn -0.7071 0.5000 0.5000
vn 0.0000 -0.7071 0.7071
vn 0.0000 0.7071 -0.7071
usemtl light
s off
f 42/41/13 43/42/13 41/43/13
f 44/44/14 47/45/14 43/42/14
f 48/46/15 45/47/15 47/45/15
f 46/48/16 41/49/16 45/47/16
f 47/45/17 41/50/17 43/51/17
f 44/52/18 46/48/18 48/46/18
f 42/41/13 44/44/13 43/42/13
f 44/44/14 48/46/14 47/45/14
f 48/46/15 46/48/15 45/47/15
f 46/48/16 42/53/16 41/49/16
f 47/45/17 45/47/17 41/50/17
f 44/52/18 42/54/18 46/48/18
